<svg xmlns="http://www.w3.org/2000/svg" width="210" height="80" viewBox="18 38 207 79">
  <g transform="translate(20 20)">
    <path transform="translate(0.000 79.200) scale(0.080000 -0.080000)" d="M118 0Q103 0 103 11Q103 22 116 23L161 30Q181 33 188.0 40.5Q195 48 195 69V669Q195 683 189.0 689.0Q183 695 164 695Q127 695 91.0 663.0Q55 631 44 560L39 527Q37 514 25 514Q10 514 12 531L21 712Q23 735 39 735Q46 735 52.0 731.5Q58 728 72.5 724.0Q87 720 119 720H342Q374 720 388.5 724.0Q403 728 409.5 731.5Q416 735 422 735Q438 735 440 712L449 531Q451 514 436 514Q424 514 422 527L417 560Q407 631 371.0 663.0Q335 695 297 695Q278 695 272.0 689.0Q266 683 266 669V69Q266 48 273.5 40.5Q281 33 300 30L345 23Q358 22 358 11Q358 0 343 0Z" fill="#1F2937"/>
    <path transform="translate(34.880 79.200) scale(0.080000 -0.080000)" d="M192 -9Q144 -9 106.0 23.0Q68 55 45.5 113.5Q23 172 23 249Q23 328 46.0 388.0Q69 448 109.0 482.0Q149 516 198 516Q257 516 293.5 467.5Q330 419 330 310Q330 277 305 277H115Q95 277 95 254Q95 148 126.0 95.0Q157 42 205 42Q243 42 267.0 69.0Q291 96 306 160Q309 171 319 171Q331 171 328 151Q312 62 277.0 26.5Q242 -9 192 -9ZM112 302H213Q261 302 261 352Q261 417 245.0 454.0Q229 491 197 491Q158 491 131.5 446.0Q105 401 97 318Q95 302 112 302Z" fill="#1F2937"/>
    <path transform="translate(61.280 79.200) scale(0.080000 -0.080000)" d="M192 -9Q144 -9 106.0 23.0Q68 55 45.5 113.5Q23 172 23 249Q23 328 46.0 388.0Q69 448 109.0 482.0Q149 516 198 516Q257 516 293.5 467.5Q330 419 330 310Q330 277 305 277H115Q95 277 95 254Q95 148 126.0 95.0Q157 42 205 42Q243 42 267.0 69.0Q291 96 306 160Q309 171 319 171Q331 171 328 151Q312 62 277.0 26.5Q242 -9 192 -9ZM112 302H213Q261 302 261 352Q261 417 245.0 454.0Q229 491 197 491Q158 491 131.5 446.0Q105 401 97 318Q95 302 112 302Z" fill="#1F2937"/>
    <path transform="translate(87.680 79.200) scale(0.080000 -0.080000)" d="M184 -9Q164 -9 139.5 -5.0Q115 -1 93.5 5.0Q72 11 60 18Q53 22 49.5 26.5Q46 31 46 42L41 199Q41 219 54 219Q65 219 69 201L78 163Q112 20 205 20Q255 20 284.5 53.5Q314 87 314 148Q314 207 283.5 258.0Q253 309 186 359Q112 412 78.0 461.5Q44 511 44 567Q44 641 95.5 685.5Q147 730 227 730Q257 730 285.0 723.0Q313 716 331 703Q337 699 340.5 694.0Q344 689 344 681L347 530Q347 513 334 513Q325 513 321 527L314 552Q292 629 268.5 664.5Q245 700 201 700Q158 700 132.5 672.0Q107 644 107 593Q107 550 135.0 511.0Q163 472 233 416Q308 355 342.5 298.5Q377 242 377 178Q377 122 352.0 80.0Q327 38 283.5 14.5Q240 -9 184 -9Z" fill="#34D399"/>
    <path transform="translate(118.240 79.200) scale(0.080000 -0.080000)" d="M434 -215Q404 -215 370.5 -202.5Q337 -190 311.0 -159.0Q285 -128 275 -71Q270 -39 259.0 -25.0Q248 -11 222 -1Q170 16 128.5 67.5Q87 119 63.5 195.0Q40 271 40 361Q40 439 57.5 506.0Q75 573 106.5 623.5Q138 674 180.0 702.0Q222 730 270 730Q318 730 359.5 702.0Q401 674 433.0 623.5Q465 573 482.5 506.0Q500 439 500 361Q500 269 475.5 191.5Q451 114 408.5 63.0Q366 12 312 -3Q306 -4 306.0 -8.5Q306 -13 311 -17Q324 -26 333.0 -39.5Q342 -53 348 -74Q366 -132 394.5 -158.0Q423 -184 457 -184Q487 -184 518 -165Q526 -160 533.0 -162.0Q540 -164 540 -172Q540 -179 532 -186Q516 -198 492.5 -206.5Q469 -215 434 -215ZM270 18Q341 18 381.0 103.0Q421 188 421 361Q421 534 381.0 618.5Q341 703 270 703Q200 703 159.5 618.5Q119 534 119 361Q119 188 159.5 103.0Q200 18 270 18Z" fill="#34D399"/>
    <path transform="translate(159.440 79.200) scale(0.080000 -0.080000)" d="M34 0Q19 0 19 11Q19 20 32 23L55 27Q76 31 82.5 38.0Q89 45 89 66V654Q89 675 82.5 682.0Q76 689 55 693L32 697Q19 700 19 709Q19 720 34 720H217Q232 720 232 708Q232 699 221 697L194 693Q173 690 166.5 682.0Q160 674 160 653V93Q160 57 180.5 41.0Q201 25 232 25Q255 25 279.5 34.5Q304 44 324.0 70.5Q344 97 354 148L367 215Q370 228 382 228Q396 228 394 211L382 23Q380 0 357 0Z" fill="#34D399"/>
  </g>
</svg>
